<?xml version="1.0" encoding="utf-8"?>
<svg xmlns="http://www.w3.org/2000/svg" xmlns:xlink="http://www.w3.org/1999/xlink" width="600" height="400" viewBox="0 0 2400 1600">
<defs>
  <clipPath id="clip280">
    <rect x="0" y="0" width="2400" height="1600"/>
  </clipPath>
</defs>
<path clip-path="url(#clip280)" d="
M0 1600 L2400 1600 L2400 0 L0 0  Z
  " fill="#ffffff" fill-rule="evenodd" fill-opacity="1"/>
<defs>
  <clipPath id="clip281">
    <rect x="480" y="0" width="1681" height="1600"/>
  </clipPath>
</defs>
<path clip-path="url(#clip280)" d="
M155.765 1486.45 L2352.76 1486.45 L2352.76 47.2441 L155.765 47.2441  Z
  " fill="#ffffff" fill-rule="evenodd" fill-opacity="1"/>
<defs>
  <clipPath id="clip282">
    <rect x="155" y="47" width="2198" height="1440"/>
  </clipPath>
</defs>
<polyline clip-path="url(#clip282)" style="stroke:#000000; stroke-linecap:butt; stroke-linejoin:round; stroke-width:2; stroke-opacity:0.1; fill:none" points="
  477.023,1486.45 477.023,47.2441 
  "/>
<polyline clip-path="url(#clip282)" style="stroke:#000000; stroke-linecap:butt; stroke-linejoin:round; stroke-width:2; stroke-opacity:0.1; fill:none" points="
  995.181,1486.45 995.181,47.2441 
  "/>
<polyline clip-path="url(#clip282)" style="stroke:#000000; stroke-linecap:butt; stroke-linejoin:round; stroke-width:2; stroke-opacity:0.1; fill:none" points="
  1513.34,1486.45 1513.34,47.2441 
  "/>
<polyline clip-path="url(#clip282)" style="stroke:#000000; stroke-linecap:butt; stroke-linejoin:round; stroke-width:2; stroke-opacity:0.1; fill:none" points="
  2031.5,1486.45 2031.5,47.2441 
  "/>
<polyline clip-path="url(#clip280)" style="stroke:#000000; stroke-linecap:butt; stroke-linejoin:round; stroke-width:4; stroke-opacity:1; fill:none" points="
  155.765,1486.45 2352.76,1486.45 
  "/>
<polyline clip-path="url(#clip280)" style="stroke:#000000; stroke-linecap:butt; stroke-linejoin:round; stroke-width:4; stroke-opacity:1; fill:none" points="
  477.023,1486.45 477.023,1467.55 
  "/>
<polyline clip-path="url(#clip280)" style="stroke:#000000; stroke-linecap:butt; stroke-linejoin:round; stroke-width:4; stroke-opacity:1; fill:none" points="
  995.181,1486.45 995.181,1467.55 
  "/>
<polyline clip-path="url(#clip280)" style="stroke:#000000; stroke-linecap:butt; stroke-linejoin:round; stroke-width:4; stroke-opacity:1; fill:none" points="
  1513.34,1486.45 1513.34,1467.55 
  "/>
<polyline clip-path="url(#clip280)" style="stroke:#000000; stroke-linecap:butt; stroke-linejoin:round; stroke-width:4; stroke-opacity:1; fill:none" points="
  2031.5,1486.45 2031.5,1467.55 
  "/>
<path clip-path="url(#clip280)" d="M471.676 1544.91 L487.995 1544.91 L487.995 1548.85 L466.051 1548.85 L466.051 1544.91 Q468.713 1542.16 473.296 1537.53 Q477.903 1532.88 479.083 1531.53 Q481.329 1529.01 482.208 1527.27 Q483.111 1525.51 483.111 1523.82 Q483.111 1521.07 481.167 1519.33 Q479.245 1517.6 476.143 1517.6 Q473.944 1517.6 471.491 1518.36 Q469.06 1519.13 466.282 1520.68 L466.282 1515.95 Q469.106 1514.82 471.56 1514.24 Q474.014 1513.66 476.051 1513.66 Q481.421 1513.66 484.616 1516.35 Q487.81 1519.03 487.81 1523.52 Q487.81 1525.65 487 1527.57 Q486.213 1529.47 484.106 1532.07 Q483.528 1532.74 480.426 1535.95 Q477.324 1539.15 471.676 1544.91 Z" fill="#000000" fill-rule="evenodd" fill-opacity="1" /><path clip-path="url(#clip280)" d="M998.191 1518.36 L986.385 1536.81 L998.191 1536.81 L998.191 1518.36 M996.964 1514.29 L1002.84 1514.29 L1002.84 1536.81 L1007.77 1536.81 L1007.77 1540.7 L1002.84 1540.7 L1002.84 1548.85 L998.191 1548.85 L998.191 1540.7 L982.589 1540.7 L982.589 1536.19 L996.964 1514.29 Z" fill="#000000" fill-rule="evenodd" fill-opacity="1" /><path clip-path="url(#clip280)" d="M1513.74 1529.7 Q1510.6 1529.7 1508.74 1531.86 Q1506.92 1534.01 1506.92 1537.76 Q1506.92 1541.49 1508.74 1543.66 Q1510.6 1545.82 1513.74 1545.82 Q1516.89 1545.82 1518.72 1543.66 Q1520.57 1541.49 1520.57 1537.76 Q1520.57 1534.01 1518.72 1531.86 Q1516.89 1529.7 1513.74 1529.7 M1523.03 1515.05 L1523.03 1519.31 Q1521.27 1518.48 1519.46 1518.04 Q1517.68 1517.6 1515.92 1517.6 Q1511.29 1517.6 1508.84 1520.72 Q1506.41 1523.85 1506.06 1530.17 Q1507.43 1528.15 1509.49 1527.09 Q1511.55 1526 1514.02 1526 Q1519.23 1526 1522.24 1529.17 Q1525.27 1532.32 1525.27 1537.76 Q1525.27 1543.08 1522.12 1546.3 Q1518.98 1549.52 1513.74 1549.52 Q1507.75 1549.52 1504.58 1544.94 Q1501.41 1540.33 1501.41 1531.6 Q1501.41 1523.41 1505.3 1518.55 Q1509.18 1513.66 1515.74 1513.66 Q1517.49 1513.66 1519.28 1514.01 Q1521.08 1514.36 1523.03 1515.05 Z" fill="#000000" fill-rule="evenodd" fill-opacity="1" /><path clip-path="url(#clip280)" d="M2031.5 1532.44 Q2028.16 1532.44 2026.24 1534.22 Q2024.35 1536 2024.35 1539.13 Q2024.35 1542.25 2026.24 1544.03 Q2028.16 1545.82 2031.5 1545.82 Q2034.83 1545.82 2036.75 1544.03 Q2038.67 1542.23 2038.67 1539.13 Q2038.67 1536 2036.75 1534.22 Q2034.85 1532.44 2031.5 1532.44 M2026.82 1530.45 Q2023.81 1529.7 2022.12 1527.64 Q2020.46 1525.58 2020.46 1522.62 Q2020.46 1518.48 2023.4 1516.07 Q2026.36 1513.66 2031.5 1513.66 Q2036.66 1513.66 2039.6 1516.07 Q2042.54 1518.48 2042.54 1522.62 Q2042.54 1525.58 2040.85 1527.64 Q2039.18 1529.7 2036.2 1530.45 Q2039.58 1531.23 2041.45 1533.52 Q2043.35 1535.82 2043.35 1539.13 Q2043.35 1544.15 2040.27 1546.83 Q2037.22 1549.52 2031.5 1549.52 Q2025.78 1549.52 2022.7 1546.83 Q2019.65 1544.15 2019.65 1539.13 Q2019.65 1535.82 2021.54 1533.52 Q2023.44 1531.23 2026.82 1530.45 M2025.11 1523.06 Q2025.11 1525.75 2026.78 1527.25 Q2028.47 1528.76 2031.5 1528.76 Q2034.51 1528.76 2036.2 1527.25 Q2037.91 1525.75 2037.91 1523.06 Q2037.91 1520.38 2036.2 1518.87 Q2034.51 1517.37 2031.5 1517.37 Q2028.47 1517.37 2026.78 1518.87 Q2025.11 1520.38 2025.11 1523.06 Z" fill="#000000" fill-rule="evenodd" fill-opacity="1" /><polyline clip-path="url(#clip282)" style="stroke:#000000; stroke-linecap:butt; stroke-linejoin:round; stroke-width:2; stroke-opacity:0.1; fill:none" points="
  155.765,1236.93 2352.76,1236.93 
  "/>
<polyline clip-path="url(#clip282)" style="stroke:#000000; stroke-linecap:butt; stroke-linejoin:round; stroke-width:2; stroke-opacity:0.1; fill:none" points="
  155.765,983.321 2352.76,983.321 
  "/>
<polyline clip-path="url(#clip282)" style="stroke:#000000; stroke-linecap:butt; stroke-linejoin:round; stroke-width:2; stroke-opacity:0.1; fill:none" points="
  155.765,729.709 2352.76,729.709 
  "/>
<polyline clip-path="url(#clip282)" style="stroke:#000000; stroke-linecap:butt; stroke-linejoin:round; stroke-width:2; stroke-opacity:0.1; fill:none" points="
  155.765,476.097 2352.76,476.097 
  "/>
<polyline clip-path="url(#clip282)" style="stroke:#000000; stroke-linecap:butt; stroke-linejoin:round; stroke-width:2; stroke-opacity:0.1; fill:none" points="
  155.765,222.485 2352.76,222.485 
  "/>
<polyline clip-path="url(#clip280)" style="stroke:#000000; stroke-linecap:butt; stroke-linejoin:round; stroke-width:4; stroke-opacity:1; fill:none" points="
  155.765,1486.45 155.765,47.2441 
  "/>
<polyline clip-path="url(#clip280)" style="stroke:#000000; stroke-linecap:butt; stroke-linejoin:round; stroke-width:4; stroke-opacity:1; fill:none" points="
  155.765,1236.93 174.663,1236.93 
  "/>
<polyline clip-path="url(#clip280)" style="stroke:#000000; stroke-linecap:butt; stroke-linejoin:round; stroke-width:4; stroke-opacity:1; fill:none" points="
  155.765,983.321 174.663,983.321 
  "/>
<polyline clip-path="url(#clip280)" style="stroke:#000000; stroke-linecap:butt; stroke-linejoin:round; stroke-width:4; stroke-opacity:1; fill:none" points="
  155.765,729.709 174.663,729.709 
  "/>
<polyline clip-path="url(#clip280)" style="stroke:#000000; stroke-linecap:butt; stroke-linejoin:round; stroke-width:4; stroke-opacity:1; fill:none" points="
  155.765,476.097 174.663,476.097 
  "/>
<polyline clip-path="url(#clip280)" style="stroke:#000000; stroke-linecap:butt; stroke-linejoin:round; stroke-width:4; stroke-opacity:1; fill:none" points="
  155.765,222.485 174.663,222.485 
  "/>
<path clip-path="url(#clip280)" d="M63.5847 1222.73 Q59.9736 1222.73 58.1449 1226.3 Q56.3393 1229.84 56.3393 1236.97 Q56.3393 1244.07 58.1449 1247.64 Q59.9736 1251.18 63.5847 1251.18 Q67.2189 1251.18 69.0244 1247.64 Q70.8531 1244.07 70.8531 1236.97 Q70.8531 1229.84 69.0244 1226.3 Q67.2189 1222.73 63.5847 1222.73 M63.5847 1219.03 Q69.3948 1219.03 72.4503 1223.63 Q75.529 1228.22 75.529 1236.97 Q75.529 1245.7 72.4503 1250.3 Q69.3948 1254.88 63.5847 1254.88 Q57.7745 1254.88 54.6958 1250.3 Q51.6403 1245.7 51.6403 1236.97 Q51.6403 1228.22 54.6958 1223.63 Q57.7745 1219.03 63.5847 1219.03 Z" fill="#000000" fill-rule="evenodd" fill-opacity="1" /><path clip-path="url(#clip280)" d="M83.7466 1248.33 L88.6308 1248.33 L88.6308 1254.21 L83.7466 1254.21 L83.7466 1248.33 Z" fill="#000000" fill-rule="evenodd" fill-opacity="1" /><path clip-path="url(#clip280)" d="M98.8622 1219.65 L117.219 1219.65 L117.219 1223.59 L103.145 1223.59 L103.145 1232.06 Q104.163 1231.71 105.182 1231.55 Q106.2 1231.37 107.219 1231.37 Q113.006 1231.37 116.385 1234.54 Q119.765 1237.71 119.765 1243.13 Q119.765 1248.7 116.293 1251.81 Q112.82 1254.88 106.501 1254.88 Q104.325 1254.88 102.057 1254.51 Q99.8113 1254.14 97.4039 1253.4 L97.4039 1248.7 Q99.4872 1249.84 101.709 1250.39 Q103.932 1250.95 106.408 1250.95 Q110.413 1250.95 112.751 1248.84 Q115.089 1246.74 115.089 1243.13 Q115.089 1239.51 112.751 1237.41 Q110.413 1235.3 106.408 1235.3 Q104.534 1235.3 102.659 1235.72 Q100.807 1236.13 98.8622 1237.01 L98.8622 1219.65 Z" fill="#000000" fill-rule="evenodd" fill-opacity="1" /><path clip-path="url(#clip280)" d="M53.3995 996.666 L61.0384 996.666 L61.0384 970.301 L52.7282 971.967 L52.7282 967.708 L60.9921 966.041 L65.668 966.041 L65.668 996.666 L73.3068 996.666 L73.3068 1000.6 L53.3995 1000.6 L53.3995 996.666 Z" fill="#000000" fill-rule="evenodd" fill-opacity="1" /><path clip-path="url(#clip280)" d="M82.7512 994.722 L87.6354 994.722 L87.6354 1000.6 L82.7512 1000.6 L82.7512 994.722 Z" fill="#000000" fill-rule="evenodd" fill-opacity="1" /><path clip-path="url(#clip280)" d="M107.821 969.12 Q104.209 969.12 102.381 972.685 Q100.575 976.226 100.575 983.356 Q100.575 990.462 102.381 994.027 Q104.209 997.569 107.821 997.569 Q111.455 997.569 113.26 994.027 Q115.089 990.462 115.089 983.356 Q115.089 976.226 113.26 972.685 Q111.455 969.12 107.821 969.12 M107.821 965.416 Q113.631 965.416 116.686 970.023 Q119.765 974.606 119.765 983.356 Q119.765 992.083 116.686 996.689 Q113.631 1001.27 107.821 1001.27 Q102.01 1001.27 98.9317 996.689 Q95.8761 992.083 95.8761 983.356 Q95.8761 974.606 98.9317 970.023 Q102.01 965.416 107.821 965.416 Z" fill="#000000" fill-rule="evenodd" fill-opacity="1" /><path clip-path="url(#clip280)" d="M54.3949 743.054 L62.0337 743.054 L62.0337 716.688 L53.7236 718.355 L53.7236 714.096 L61.9874 712.429 L66.6633 712.429 L66.6633 743.054 L74.3022 743.054 L74.3022 746.989 L54.3949 746.989 L54.3949 743.054 Z" fill="#000000" fill-rule="evenodd" fill-opacity="1" /><path clip-path="url(#clip280)" d="M83.7466 741.109 L88.6308 741.109 L88.6308 746.989 L83.7466 746.989 L83.7466 741.109 Z" fill="#000000" fill-rule="evenodd" fill-opacity="1" /><path clip-path="url(#clip280)" d="M98.8622 712.429 L117.219 712.429 L117.219 716.364 L103.145 716.364 L103.145 724.836 Q104.163 724.489 105.182 724.327 Q106.2 724.142 107.219 724.142 Q113.006 724.142 116.385 727.313 Q119.765 730.485 119.765 735.901 Q119.765 741.48 116.293 744.582 Q112.82 747.66 106.501 747.66 Q104.325 747.66 102.057 747.29 Q99.8113 746.92 97.4039 746.179 L97.4039 741.48 Q99.4872 742.614 101.709 743.17 Q103.932 743.725 106.408 743.725 Q110.413 743.725 112.751 741.619 Q115.089 739.512 115.089 735.901 Q115.089 732.29 112.751 730.184 Q110.413 728.077 106.408 728.077 Q104.534 728.077 102.659 728.494 Q100.807 728.91 98.8622 729.79 L98.8622 712.429 Z" fill="#000000" fill-rule="evenodd" fill-opacity="1" /><path clip-path="url(#clip280)" d="M56.6171 489.442 L72.9365 489.442 L72.9365 493.377 L50.9921 493.377 L50.9921 489.442 Q53.6541 486.687 58.2375 482.057 Q62.8439 477.405 64.0245 476.062 Q66.2698 473.539 67.1494 471.803 Q68.0522 470.044 68.0522 468.354 Q68.0522 465.599 66.1078 463.863 Q64.1865 462.127 61.0847 462.127 Q58.8856 462.127 56.4319 462.891 Q54.0014 463.655 51.2236 465.206 L51.2236 460.484 Q54.0477 459.349 56.5014 458.771 Q58.955 458.192 60.9921 458.192 Q66.3624 458.192 69.5568 460.877 Q72.7513 463.562 72.7513 468.053 Q72.7513 470.183 71.9411 472.104 Q71.1541 474.002 69.0476 476.595 Q68.4689 477.266 65.367 480.483 Q62.2652 483.678 56.6171 489.442 Z" fill="#000000" fill-rule="evenodd" fill-opacity="1" /><path clip-path="url(#clip280)" d="M82.7512 487.497 L87.6354 487.497 L87.6354 493.377 L82.7512 493.377 L82.7512 487.497 Z" fill="#000000" fill-rule="evenodd" fill-opacity="1" /><path clip-path="url(#clip280)" d="M107.821 461.896 Q104.209 461.896 102.381 465.46 Q100.575 469.002 100.575 476.132 Q100.575 483.238 102.381 486.803 Q104.209 490.344 107.821 490.344 Q111.455 490.344 113.26 486.803 Q115.089 483.238 115.089 476.132 Q115.089 469.002 113.26 465.46 Q111.455 461.896 107.821 461.896 M107.821 458.192 Q113.631 458.192 116.686 462.798 Q119.765 467.382 119.765 476.132 Q119.765 484.858 116.686 489.465 Q113.631 494.048 107.821 494.048 Q102.01 494.048 98.9317 489.465 Q95.8761 484.858 95.8761 476.132 Q95.8761 467.382 98.9317 462.798 Q102.01 458.192 107.821 458.192 Z" fill="#000000" fill-rule="evenodd" fill-opacity="1" /><path clip-path="url(#clip280)" d="M57.6125 235.83 L73.9318 235.83 L73.9318 239.765 L51.9875 239.765 L51.9875 235.83 Q54.6495 233.075 59.2328 228.445 Q63.8393 223.793 65.0198 222.45 Q67.2652 219.927 68.1448 218.191 Q69.0476 216.431 69.0476 214.742 Q69.0476 211.987 67.1032 210.251 Q65.1819 208.515 62.08 208.515 Q59.881 208.515 57.4273 209.279 Q54.9967 210.043 52.219 211.594 L52.219 206.871 Q55.043 205.737 57.4967 205.158 Q59.9504 204.58 61.9874 204.58 Q67.3578 204.58 70.5522 207.265 Q73.7466 209.95 73.7466 214.441 Q73.7466 216.57 72.9365 218.492 Q72.1494 220.39 70.0429 222.982 Q69.4642 223.654 66.3624 226.871 Q63.2606 230.066 57.6125 235.83 Z" fill="#000000" fill-rule="evenodd" fill-opacity="1" /><path clip-path="url(#clip280)" d="M83.7466 233.885 L88.6308 233.885 L88.6308 239.765 L83.7466 239.765 L83.7466 233.885 Z" fill="#000000" fill-rule="evenodd" fill-opacity="1" /><path clip-path="url(#clip280)" d="M98.8622 205.205 L117.219 205.205 L117.219 209.14 L103.145 209.14 L103.145 217.612 Q104.163 217.265 105.182 217.103 Q106.2 216.918 107.219 216.918 Q113.006 216.918 116.385 220.089 Q119.765 223.26 119.765 228.677 Q119.765 234.255 116.293 237.357 Q112.82 240.436 106.501 240.436 Q104.325 240.436 102.057 240.066 Q99.8113 239.695 97.4039 238.954 L97.4039 234.255 Q99.4872 235.39 101.709 235.945 Q103.932 236.501 106.408 236.501 Q110.413 236.501 112.751 234.394 Q115.089 232.288 115.089 228.677 Q115.089 225.066 112.751 222.959 Q110.413 220.853 106.408 220.853 Q104.534 220.853 102.659 221.269 Q100.807 221.686 98.8622 222.566 L98.8622 205.205 Z" fill="#000000" fill-rule="evenodd" fill-opacity="1" /><polyline clip-path="url(#clip282)" style="stroke:#009af9; stroke-linecap:butt; stroke-linejoin:round; stroke-width:4; stroke-opacity:1; fill:none" points="
  217.944,87.9763 477.023,944.094 736.102,1431.73 995.181,1445.72 1254.26,1323.85 1513.34,1445.72 1772.42,1431.73 2031.5,944.094 2290.58,87.9763 
  "/>
<path clip-path="url(#clip280)" d="
M1982.98 198.898 L2279.52 198.898 L2279.52 95.2176 L1982.98 95.2176  Z
  " fill="#ffffff" fill-rule="evenodd" fill-opacity="1"/>
<polyline clip-path="url(#clip280)" style="stroke:#000000; stroke-linecap:butt; stroke-linejoin:round; stroke-width:4; stroke-opacity:1; fill:none" points="
  1982.98,198.898 2279.52,198.898 2279.52,95.2176 1982.98,95.2176 1982.98,198.898 
  "/>
<polyline clip-path="url(#clip280)" style="stroke:#009af9; stroke-linecap:butt; stroke-linejoin:round; stroke-width:4; stroke-opacity:1; fill:none" points="
  2007.39,147.058 2153.86,147.058 
  "/>
<path clip-path="url(#clip280)" d="M2192.11 166.745 Q2190.31 171.375 2188.59 172.787 Q2186.88 174.199 2184.01 174.199 L2180.61 174.199 L2180.61 170.634 L2183.11 170.634 Q2184.87 170.634 2185.84 169.8 Q2186.81 168.967 2187.99 165.865 L2188.76 163.921 L2178.27 138.412 L2182.78 138.412 L2190.89 158.689 L2198.99 138.412 L2203.5 138.412 L2192.11 166.745 Z" fill="#000000" fill-rule="evenodd" fill-opacity="1" /><path clip-path="url(#clip280)" d="M2210.79 160.402 L2218.43 160.402 L2218.43 134.037 L2210.12 135.703 L2210.12 131.444 L2218.39 129.778 L2223.06 129.778 L2223.06 160.402 L2230.7 160.402 L2230.7 164.338 L2210.79 164.338 L2210.79 160.402 Z" fill="#000000" fill-rule="evenodd" fill-opacity="1" /></svg>
