<?xml version="1.0" encoding="utf-8"?>
<svg xmlns="http://www.w3.org/2000/svg" xmlns:xlink="http://www.w3.org/1999/xlink" width="600" height="400" viewBox="0 0 2400 1600">
<defs>
  <clipPath id="clip240">
    <rect x="0" y="0" width="2400" height="1600"/>
  </clipPath>
</defs>
<path clip-path="url(#clip240)" d="
M0 1600 L2400 1600 L2400 0 L0 0  Z
  " fill="#ffffff" fill-rule="evenodd" fill-opacity="1"/>
<defs>
  <clipPath id="clip241">
    <rect x="480" y="0" width="1681" height="1600"/>
  </clipPath>
</defs>
<path clip-path="url(#clip240)" d="
M246.598 1486.45 L2352.76 1486.45 L2352.76 47.2441 L246.598 47.2441  Z
  " fill="#ffffff" fill-rule="evenodd" fill-opacity="1"/>
<defs>
  <clipPath id="clip242">
    <rect x="246" y="47" width="2107" height="1440"/>
  </clipPath>
</defs>
<polyline clip-path="url(#clip242)" style="stroke:#000000; stroke-linecap:butt; stroke-linejoin:round; stroke-width:2; stroke-opacity:0.1; fill:none" points="
  554.574,1486.45 554.574,47.2441 
  "/>
<polyline clip-path="url(#clip242)" style="stroke:#000000; stroke-linecap:butt; stroke-linejoin:round; stroke-width:2; stroke-opacity:0.1; fill:none" points="
  1051.31,1486.45 1051.31,47.2441 
  "/>
<polyline clip-path="url(#clip242)" style="stroke:#000000; stroke-linecap:butt; stroke-linejoin:round; stroke-width:2; stroke-opacity:0.1; fill:none" points="
  1548.04,1486.45 1548.04,47.2441 
  "/>
<polyline clip-path="url(#clip242)" style="stroke:#000000; stroke-linecap:butt; stroke-linejoin:round; stroke-width:2; stroke-opacity:0.1; fill:none" points="
  2044.78,1486.45 2044.78,47.2441 
  "/>
<polyline clip-path="url(#clip240)" style="stroke:#000000; stroke-linecap:butt; stroke-linejoin:round; stroke-width:4; stroke-opacity:1; fill:none" points="
  246.598,1486.45 2352.76,1486.45 
  "/>
<polyline clip-path="url(#clip240)" style="stroke:#000000; stroke-linecap:butt; stroke-linejoin:round; stroke-width:4; stroke-opacity:1; fill:none" points="
  554.574,1486.45 554.574,1467.55 
  "/>
<polyline clip-path="url(#clip240)" style="stroke:#000000; stroke-linecap:butt; stroke-linejoin:round; stroke-width:4; stroke-opacity:1; fill:none" points="
  1051.31,1486.45 1051.31,1467.55 
  "/>
<polyline clip-path="url(#clip240)" style="stroke:#000000; stroke-linecap:butt; stroke-linejoin:round; stroke-width:4; stroke-opacity:1; fill:none" points="
  1548.04,1486.45 1548.04,1467.55 
  "/>
<polyline clip-path="url(#clip240)" style="stroke:#000000; stroke-linecap:butt; stroke-linejoin:round; stroke-width:4; stroke-opacity:1; fill:none" points="
  2044.78,1486.45 2044.78,1467.55 
  "/>
<path clip-path="url(#clip240)" d="M549.227 1544.91 L565.546 1544.91 L565.546 1548.85 L543.602 1548.85 L543.602 1544.91 Q546.264 1542.16 550.847 1537.53 Q555.453 1532.88 556.634 1531.53 Q558.879 1529.01 559.759 1527.27 Q560.662 1525.51 560.662 1523.82 Q560.662 1521.07 558.717 1519.33 Q556.796 1517.6 553.694 1517.6 Q551.495 1517.6 549.041 1518.36 Q546.611 1519.13 543.833 1520.68 L543.833 1515.95 Q546.657 1514.82 549.111 1514.24 Q551.564 1513.66 553.601 1513.66 Q558.972 1513.66 562.166 1516.35 Q565.361 1519.03 565.361 1523.52 Q565.361 1525.65 564.551 1527.57 Q563.763 1529.47 561.657 1532.07 Q561.078 1532.74 557.976 1535.95 Q554.875 1539.15 549.227 1544.91 Z" fill="#000000" fill-rule="evenodd" fill-opacity="1" /><path clip-path="url(#clip240)" d="M1054.32 1518.36 L1042.51 1536.81 L1054.32 1536.81 L1054.32 1518.36 M1053.09 1514.29 L1058.97 1514.29 L1058.97 1536.81 L1063.9 1536.81 L1063.9 1540.7 L1058.97 1540.7 L1058.97 1548.85 L1054.32 1548.85 L1054.32 1540.7 L1038.72 1540.7 L1038.72 1536.19 L1053.09 1514.29 Z" fill="#000000" fill-rule="evenodd" fill-opacity="1" /><path clip-path="url(#clip240)" d="M1548.45 1529.7 Q1545.3 1529.7 1543.45 1531.86 Q1541.62 1534.01 1541.62 1537.76 Q1541.62 1541.49 1543.45 1543.66 Q1545.3 1545.82 1548.45 1545.82 Q1551.6 1545.82 1553.43 1543.66 Q1555.28 1541.49 1555.28 1537.76 Q1555.28 1534.01 1553.43 1531.86 Q1551.6 1529.7 1548.45 1529.7 M1557.73 1515.05 L1557.73 1519.31 Q1555.97 1518.48 1554.17 1518.04 Q1552.38 1517.6 1550.63 1517.6 Q1546 1517.6 1543.54 1520.72 Q1541.11 1523.85 1540.76 1530.17 Q1542.13 1528.15 1544.19 1527.09 Q1546.25 1526 1548.73 1526 Q1553.94 1526 1556.94 1529.17 Q1559.98 1532.32 1559.98 1537.76 Q1559.98 1543.08 1556.83 1546.3 Q1553.68 1549.52 1548.45 1549.52 Q1542.45 1549.52 1539.28 1544.94 Q1536.11 1540.33 1536.11 1531.6 Q1536.11 1523.41 1540 1518.55 Q1543.89 1513.66 1550.44 1513.66 Q1552.2 1513.66 1553.98 1514.01 Q1555.79 1514.36 1557.73 1515.05 Z" fill="#000000" fill-rule="evenodd" fill-opacity="1" /><path clip-path="url(#clip240)" d="M2044.78 1532.44 Q2041.45 1532.44 2039.53 1534.22 Q2037.63 1536 2037.63 1539.13 Q2037.63 1542.25 2039.53 1544.03 Q2041.45 1545.82 2044.78 1545.82 Q2048.11 1545.82 2050.03 1544.03 Q2051.96 1542.23 2051.96 1539.13 Q2051.96 1536 2050.03 1534.22 Q2048.14 1532.44 2044.78 1532.44 M2040.1 1530.45 Q2037.09 1529.7 2035.4 1527.64 Q2033.74 1525.58 2033.74 1522.62 Q2033.74 1518.48 2036.68 1516.07 Q2039.64 1513.66 2044.78 1513.66 Q2049.94 1513.66 2052.88 1516.07 Q2055.82 1518.48 2055.82 1522.62 Q2055.82 1525.58 2054.13 1527.64 Q2052.47 1529.7 2049.48 1530.45 Q2052.86 1531.23 2054.73 1533.52 Q2056.63 1535.82 2056.63 1539.13 Q2056.63 1544.15 2053.55 1546.83 Q2050.5 1549.52 2044.78 1549.52 Q2039.06 1549.52 2035.98 1546.83 Q2032.93 1544.15 2032.93 1539.13 Q2032.93 1535.82 2034.83 1533.52 Q2036.72 1531.23 2040.1 1530.45 M2038.39 1523.06 Q2038.39 1525.75 2040.06 1527.25 Q2041.75 1528.76 2044.78 1528.76 Q2047.79 1528.76 2049.48 1527.25 Q2051.19 1525.75 2051.19 1523.06 Q2051.19 1520.38 2049.48 1518.87 Q2047.79 1517.37 2044.78 1517.37 Q2041.75 1517.37 2040.06 1518.87 Q2038.39 1520.38 2038.39 1523.06 Z" fill="#000000" fill-rule="evenodd" fill-opacity="1" /><polyline clip-path="url(#clip242)" style="stroke:#000000; stroke-linecap:butt; stroke-linejoin:round; stroke-width:2; stroke-opacity:0.1; fill:none" points="
  246.598,1461.04 2352.76,1461.04 
  "/>
<polyline clip-path="url(#clip242)" style="stroke:#000000; stroke-linecap:butt; stroke-linejoin:round; stroke-width:2; stroke-opacity:0.1; fill:none" points="
  246.598,1158.45 2352.76,1158.45 
  "/>
<polyline clip-path="url(#clip242)" style="stroke:#000000; stroke-linecap:butt; stroke-linejoin:round; stroke-width:2; stroke-opacity:0.1; fill:none" points="
  246.598,855.856 2352.76,855.856 
  "/>
<polyline clip-path="url(#clip242)" style="stroke:#000000; stroke-linecap:butt; stroke-linejoin:round; stroke-width:2; stroke-opacity:0.1; fill:none" points="
  246.598,553.263 2352.76,553.263 
  "/>
<polyline clip-path="url(#clip242)" style="stroke:#000000; stroke-linecap:butt; stroke-linejoin:round; stroke-width:2; stroke-opacity:0.1; fill:none" points="
  246.598,250.671 2352.76,250.671 
  "/>
<polyline clip-path="url(#clip240)" style="stroke:#000000; stroke-linecap:butt; stroke-linejoin:round; stroke-width:4; stroke-opacity:1; fill:none" points="
  246.598,1486.45 246.598,47.2441 
  "/>
<polyline clip-path="url(#clip240)" style="stroke:#000000; stroke-linecap:butt; stroke-linejoin:round; stroke-width:4; stroke-opacity:1; fill:none" points="
  246.598,1461.04 265.495,1461.04 
  "/>
<polyline clip-path="url(#clip240)" style="stroke:#000000; stroke-linecap:butt; stroke-linejoin:round; stroke-width:4; stroke-opacity:1; fill:none" points="
  246.598,1158.45 265.495,1158.45 
  "/>
<polyline clip-path="url(#clip240)" style="stroke:#000000; stroke-linecap:butt; stroke-linejoin:round; stroke-width:4; stroke-opacity:1; fill:none" points="
  246.598,855.856 265.495,855.856 
  "/>
<polyline clip-path="url(#clip240)" style="stroke:#000000; stroke-linecap:butt; stroke-linejoin:round; stroke-width:4; stroke-opacity:1; fill:none" points="
  246.598,553.263 265.495,553.263 
  "/>
<polyline clip-path="url(#clip240)" style="stroke:#000000; stroke-linecap:butt; stroke-linejoin:round; stroke-width:4; stroke-opacity:1; fill:none" points="
  246.598,250.671 265.495,250.671 
  "/>
<path clip-path="url(#clip240)" d="M62.9365 1446.84 Q59.3254 1446.84 57.4967 1450.41 Q55.6912 1453.95 55.6912 1461.08 Q55.6912 1468.18 57.4967 1471.75 Q59.3254 1475.29 62.9365 1475.29 Q66.5707 1475.29 68.3763 1471.75 Q70.205 1468.18 70.205 1461.08 Q70.205 1453.95 68.3763 1450.41 Q66.5707 1446.84 62.9365 1446.84 M62.9365 1443.14 Q68.7467 1443.14 71.8022 1447.74 Q74.8809 1452.33 74.8809 1461.08 Q74.8809 1469.8 71.8022 1474.41 Q68.7467 1478.99 62.9365 1478.99 Q57.1264 1478.99 54.0477 1474.41 Q50.9921 1469.8 50.9921 1461.08 Q50.9921 1452.33 54.0477 1447.74 Q57.1264 1443.14 62.9365 1443.14 Z" fill="#000000" fill-rule="evenodd" fill-opacity="1" /><path clip-path="url(#clip240)" d="M83.0984 1472.44 L87.9827 1472.44 L87.9827 1478.32 L83.0984 1478.32 L83.0984 1472.44 Z" fill="#000000" fill-rule="evenodd" fill-opacity="1" /><path clip-path="url(#clip240)" d="M108.168 1446.84 Q104.557 1446.84 102.728 1450.41 Q100.922 1453.95 100.922 1461.08 Q100.922 1468.18 102.728 1471.75 Q104.557 1475.29 108.168 1475.29 Q111.802 1475.29 113.608 1471.75 Q115.436 1468.18 115.436 1461.08 Q115.436 1453.95 113.608 1450.41 Q111.802 1446.84 108.168 1446.84 M108.168 1443.14 Q113.978 1443.14 117.033 1447.74 Q120.112 1452.33 120.112 1461.08 Q120.112 1469.8 117.033 1474.41 Q113.978 1478.99 108.168 1478.99 Q102.358 1478.99 99.2789 1474.41 Q96.2234 1469.8 96.2234 1461.08 Q96.2234 1452.33 99.2789 1447.74 Q102.358 1443.14 108.168 1443.14 Z" fill="#000000" fill-rule="evenodd" fill-opacity="1" /><path clip-path="url(#clip240)" d="M138.33 1446.84 Q134.719 1446.84 132.89 1450.41 Q131.084 1453.95 131.084 1461.08 Q131.084 1468.18 132.89 1471.75 Q134.719 1475.29 138.33 1475.29 Q141.964 1475.29 143.769 1471.75 Q145.598 1468.18 145.598 1461.08 Q145.598 1453.95 143.769 1450.41 Q141.964 1446.84 138.33 1446.84 M138.33 1443.14 Q144.14 1443.14 147.195 1447.74 Q150.274 1452.33 150.274 1461.08 Q150.274 1469.8 147.195 1474.41 Q144.14 1478.99 138.33 1478.99 Q132.519 1478.99 129.441 1474.41 Q126.385 1469.8 126.385 1461.08 Q126.385 1452.33 129.441 1447.74 Q132.519 1443.14 138.33 1443.14 Z" fill="#000000" fill-rule="evenodd" fill-opacity="1" /><path clip-path="url(#clip240)" d="M168.491 1446.84 Q164.88 1446.84 163.052 1450.41 Q161.246 1453.95 161.246 1461.08 Q161.246 1468.18 163.052 1471.75 Q164.88 1475.29 168.491 1475.29 Q172.126 1475.29 173.931 1471.75 Q175.76 1468.18 175.76 1461.08 Q175.76 1453.95 173.931 1450.41 Q172.126 1446.84 168.491 1446.84 M168.491 1443.14 Q174.302 1443.14 177.357 1447.74 Q180.436 1452.33 180.436 1461.08 Q180.436 1469.8 177.357 1474.41 Q174.302 1478.99 168.491 1478.99 Q162.681 1478.99 159.603 1474.41 Q156.547 1469.8 156.547 1461.08 Q156.547 1452.33 159.603 1447.74 Q162.681 1443.14 168.491 1443.14 Z" fill="#000000" fill-rule="evenodd" fill-opacity="1" /><path clip-path="url(#clip240)" d="M198.653 1446.84 Q195.042 1446.84 193.214 1450.41 Q191.408 1453.95 191.408 1461.08 Q191.408 1468.18 193.214 1471.75 Q195.042 1475.29 198.653 1475.29 Q202.288 1475.29 204.093 1471.75 Q205.922 1468.18 205.922 1461.08 Q205.922 1453.95 204.093 1450.41 Q202.288 1446.84 198.653 1446.84 M198.653 1443.14 Q204.464 1443.14 207.519 1447.74 Q210.598 1452.33 210.598 1461.08 Q210.598 1469.8 207.519 1474.41 Q204.464 1478.99 198.653 1478.99 Q192.843 1478.99 189.765 1474.41 Q186.709 1469.8 186.709 1461.08 Q186.709 1452.33 189.765 1447.74 Q192.843 1443.14 198.653 1443.14 Z" fill="#000000" fill-rule="evenodd" fill-opacity="1" /><path clip-path="url(#clip240)" d="M63.9319 1144.25 Q60.3208 1144.25 58.4921 1147.81 Q56.6865 1151.35 56.6865 1158.48 Q56.6865 1165.59 58.4921 1169.16 Q60.3208 1172.7 63.9319 1172.7 Q67.5661 1172.7 69.3717 1169.16 Q71.2004 1165.59 71.2004 1158.48 Q71.2004 1151.35 69.3717 1147.81 Q67.5661 1144.25 63.9319 1144.25 M63.9319 1140.54 Q69.742 1140.54 72.7976 1145.15 Q75.8763 1149.73 75.8763 1158.48 Q75.8763 1167.21 72.7976 1171.82 Q69.742 1176.4 63.9319 1176.4 Q58.1217 1176.4 55.043 1171.82 Q51.9875 1167.21 51.9875 1158.48 Q51.9875 1149.73 55.043 1145.15 Q58.1217 1140.54 63.9319 1140.54 Z" fill="#000000" fill-rule="evenodd" fill-opacity="1" /><path clip-path="url(#clip240)" d="M84.0938 1169.85 L88.978 1169.85 L88.978 1175.73 L84.0938 1175.73 L84.0938 1169.85 Z" fill="#000000" fill-rule="evenodd" fill-opacity="1" /><path clip-path="url(#clip240)" d="M109.163 1144.25 Q105.552 1144.25 103.723 1147.81 Q101.918 1151.35 101.918 1158.48 Q101.918 1165.59 103.723 1169.16 Q105.552 1172.7 109.163 1172.7 Q112.797 1172.7 114.603 1169.16 Q116.432 1165.59 116.432 1158.48 Q116.432 1151.35 114.603 1147.81 Q112.797 1144.25 109.163 1144.25 M109.163 1140.54 Q114.973 1140.54 118.029 1145.15 Q121.107 1149.73 121.107 1158.48 Q121.107 1167.21 118.029 1171.82 Q114.973 1176.4 109.163 1176.4 Q103.353 1176.4 100.274 1171.82 Q97.2187 1167.21 97.2187 1158.48 Q97.2187 1149.73 100.274 1145.15 Q103.353 1140.54 109.163 1140.54 Z" fill="#000000" fill-rule="evenodd" fill-opacity="1" /><path clip-path="url(#clip240)" d="M139.325 1144.25 Q135.714 1144.25 133.885 1147.81 Q132.08 1151.35 132.08 1158.48 Q132.08 1165.59 133.885 1169.16 Q135.714 1172.7 139.325 1172.7 Q142.959 1172.7 144.765 1169.16 Q146.593 1165.59 146.593 1158.48 Q146.593 1151.35 144.765 1147.81 Q142.959 1144.25 139.325 1144.25 M139.325 1140.54 Q145.135 1140.54 148.191 1145.15 Q151.269 1149.73 151.269 1158.48 Q151.269 1167.21 148.191 1171.82 Q145.135 1176.4 139.325 1176.4 Q133.515 1176.4 130.436 1171.82 Q127.381 1167.21 127.381 1158.48 Q127.381 1149.73 130.436 1145.15 Q133.515 1140.54 139.325 1140.54 Z" fill="#000000" fill-rule="evenodd" fill-opacity="1" /><path clip-path="url(#clip240)" d="M163.515 1171.79 L179.834 1171.79 L179.834 1175.73 L157.89 1175.73 L157.89 1171.79 Q160.552 1169.04 165.135 1164.41 Q169.741 1159.76 170.922 1158.41 Q173.167 1155.89 174.047 1154.16 Q174.95 1152.4 174.95 1150.71 Q174.95 1147.95 173.005 1146.22 Q171.084 1144.48 167.982 1144.48 Q165.783 1144.48 163.329 1145.24 Q160.899 1146.01 158.121 1147.56 L158.121 1142.84 Q160.945 1141.7 163.399 1141.12 Q165.853 1140.54 167.89 1140.54 Q173.26 1140.54 176.454 1143.23 Q179.649 1145.91 179.649 1150.41 Q179.649 1152.53 178.839 1154.46 Q178.052 1156.35 175.945 1158.95 Q175.366 1159.62 172.265 1162.84 Q169.163 1166.03 163.515 1171.79 Z" fill="#000000" fill-rule="evenodd" fill-opacity="1" /><path clip-path="url(#clip240)" d="M189.695 1141.17 L208.051 1141.17 L208.051 1145.1 L193.977 1145.1 L193.977 1153.58 Q194.996 1153.23 196.014 1153.07 Q197.033 1152.88 198.052 1152.88 Q203.839 1152.88 207.218 1156.05 Q210.598 1159.22 210.598 1164.64 Q210.598 1170.22 207.126 1173.32 Q203.653 1176.4 197.334 1176.4 Q195.158 1176.4 192.89 1176.03 Q190.644 1175.66 188.237 1174.92 L188.237 1170.22 Q190.32 1171.35 192.542 1171.91 Q194.765 1172.47 197.241 1172.47 Q201.246 1172.47 203.584 1170.36 Q205.922 1168.25 205.922 1164.64 Q205.922 1161.03 203.584 1158.92 Q201.246 1156.82 197.241 1156.82 Q195.366 1156.82 193.491 1157.23 Q191.64 1157.65 189.695 1158.53 L189.695 1141.17 Z" fill="#000000" fill-rule="evenodd" fill-opacity="1" /><path clip-path="url(#clip240)" d="M62.9365 841.655 Q59.3254 841.655 57.4967 845.22 Q55.6912 848.761 55.6912 855.891 Q55.6912 862.998 57.4967 866.562 Q59.3254 870.104 62.9365 870.104 Q66.5707 870.104 68.3763 866.562 Q70.205 862.998 70.205 855.891 Q70.205 848.761 68.3763 845.22 Q66.5707 841.655 62.9365 841.655 M62.9365 837.951 Q68.7467 837.951 71.8022 842.558 Q74.8809 847.141 74.8809 855.891 Q74.8809 864.618 71.8022 869.224 Q68.7467 873.808 62.9365 873.808 Q57.1264 873.808 54.0477 869.224 Q50.9921 864.618 50.9921 855.891 Q50.9921 847.141 54.0477 842.558 Q57.1264 837.951 62.9365 837.951 Z" fill="#000000" fill-rule="evenodd" fill-opacity="1" /><path clip-path="url(#clip240)" d="M83.0984 867.257 L87.9827 867.257 L87.9827 873.136 L83.0984 873.136 L83.0984 867.257 Z" fill="#000000" fill-rule="evenodd" fill-opacity="1" /><path clip-path="url(#clip240)" d="M108.168 841.655 Q104.557 841.655 102.728 845.22 Q100.922 848.761 100.922 855.891 Q100.922 862.998 102.728 866.562 Q104.557 870.104 108.168 870.104 Q111.802 870.104 113.608 866.562 Q115.436 862.998 115.436 855.891 Q115.436 848.761 113.608 845.22 Q111.802 841.655 108.168 841.655 M108.168 837.951 Q113.978 837.951 117.033 842.558 Q120.112 847.141 120.112 855.891 Q120.112 864.618 117.033 869.224 Q113.978 873.808 108.168 873.808 Q102.358 873.808 99.2789 869.224 Q96.2234 864.618 96.2234 855.891 Q96.2234 847.141 99.2789 842.558 Q102.358 837.951 108.168 837.951 Z" fill="#000000" fill-rule="evenodd" fill-opacity="1" /><path clip-path="url(#clip240)" d="M138.33 841.655 Q134.719 841.655 132.89 845.22 Q131.084 848.761 131.084 855.891 Q131.084 862.998 132.89 866.562 Q134.719 870.104 138.33 870.104 Q141.964 870.104 143.769 866.562 Q145.598 862.998 145.598 855.891 Q145.598 848.761 143.769 845.22 Q141.964 841.655 138.33 841.655 M138.33 837.951 Q144.14 837.951 147.195 842.558 Q150.274 847.141 150.274 855.891 Q150.274 864.618 147.195 869.224 Q144.14 873.808 138.33 873.808 Q132.519 873.808 129.441 869.224 Q126.385 864.618 126.385 855.891 Q126.385 847.141 129.441 842.558 Q132.519 837.951 138.33 837.951 Z" fill="#000000" fill-rule="evenodd" fill-opacity="1" /><path clip-path="url(#clip240)" d="M158.538 838.576 L176.894 838.576 L176.894 842.511 L162.82 842.511 L162.82 850.984 Q163.839 850.636 164.857 850.474 Q165.876 850.289 166.894 850.289 Q172.681 850.289 176.061 853.461 Q179.441 856.632 179.441 862.048 Q179.441 867.627 175.968 870.729 Q172.496 873.808 166.177 873.808 Q164.001 873.808 161.732 873.437 Q159.487 873.067 157.08 872.326 L157.08 867.627 Q159.163 868.761 161.385 869.317 Q163.607 869.872 166.084 869.872 Q170.089 869.872 172.427 867.766 Q174.765 865.66 174.765 862.048 Q174.765 858.437 172.427 856.331 Q170.089 854.224 166.084 854.224 Q164.209 854.224 162.334 854.641 Q160.482 855.058 158.538 855.937 L158.538 838.576 Z" fill="#000000" fill-rule="evenodd" fill-opacity="1" /><path clip-path="url(#clip240)" d="M198.653 841.655 Q195.042 841.655 193.214 845.22 Q191.408 848.761 191.408 855.891 Q191.408 862.998 193.214 866.562 Q195.042 870.104 198.653 870.104 Q202.288 870.104 204.093 866.562 Q205.922 862.998 205.922 855.891 Q205.922 848.761 204.093 845.22 Q202.288 841.655 198.653 841.655 M198.653 837.951 Q204.464 837.951 207.519 842.558 Q210.598 847.141 210.598 855.891 Q210.598 864.618 207.519 869.224 Q204.464 873.808 198.653 873.808 Q192.843 873.808 189.765 869.224 Q186.709 864.618 186.709 855.891 Q186.709 847.141 189.765 842.558 Q192.843 837.951 198.653 837.951 Z" fill="#000000" fill-rule="evenodd" fill-opacity="1" /><path clip-path="url(#clip240)" d="M63.9319 539.062 Q60.3208 539.062 58.4921 542.627 Q56.6865 546.169 56.6865 553.298 Q56.6865 560.405 58.4921 563.969 Q60.3208 567.511 63.9319 567.511 Q67.5661 567.511 69.3717 563.969 Q71.2004 560.405 71.2004 553.298 Q71.2004 546.169 69.3717 542.627 Q67.5661 539.062 63.9319 539.062 M63.9319 535.358 Q69.742 535.358 72.7976 539.965 Q75.8763 544.548 75.8763 553.298 Q75.8763 562.025 72.7976 566.631 Q69.742 571.215 63.9319 571.215 Q58.1217 571.215 55.043 566.631 Q51.9875 562.025 51.9875 553.298 Q51.9875 544.548 55.043 539.965 Q58.1217 535.358 63.9319 535.358 Z" fill="#000000" fill-rule="evenodd" fill-opacity="1" /><path clip-path="url(#clip240)" d="M84.0938 564.664 L88.978 564.664 L88.978 570.543 L84.0938 570.543 L84.0938 564.664 Z" fill="#000000" fill-rule="evenodd" fill-opacity="1" /><path clip-path="url(#clip240)" d="M109.163 539.062 Q105.552 539.062 103.723 542.627 Q101.918 546.169 101.918 553.298 Q101.918 560.405 103.723 563.969 Q105.552 567.511 109.163 567.511 Q112.797 567.511 114.603 563.969 Q116.432 560.405 116.432 553.298 Q116.432 546.169 114.603 542.627 Q112.797 539.062 109.163 539.062 M109.163 535.358 Q114.973 535.358 118.029 539.965 Q121.107 544.548 121.107 553.298 Q121.107 562.025 118.029 566.631 Q114.973 571.215 109.163 571.215 Q103.353 571.215 100.274 566.631 Q97.2187 562.025 97.2187 553.298 Q97.2187 544.548 100.274 539.965 Q103.353 535.358 109.163 535.358 Z" fill="#000000" fill-rule="evenodd" fill-opacity="1" /><path clip-path="url(#clip240)" d="M139.325 539.062 Q135.714 539.062 133.885 542.627 Q132.08 546.169 132.08 553.298 Q132.08 560.405 133.885 563.969 Q135.714 567.511 139.325 567.511 Q142.959 567.511 144.765 563.969 Q146.593 560.405 146.593 553.298 Q146.593 546.169 144.765 542.627 Q142.959 539.062 139.325 539.062 M139.325 535.358 Q145.135 535.358 148.191 539.965 Q151.269 544.548 151.269 553.298 Q151.269 562.025 148.191 566.631 Q145.135 571.215 139.325 571.215 Q133.515 571.215 130.436 566.631 Q127.381 562.025 127.381 553.298 Q127.381 544.548 130.436 539.965 Q133.515 535.358 139.325 535.358 Z" fill="#000000" fill-rule="evenodd" fill-opacity="1" /><path clip-path="url(#clip240)" d="M158.306 535.983 L180.528 535.983 L180.528 537.974 L167.982 570.543 L163.098 570.543 L174.903 539.919 L158.306 539.919 L158.306 535.983 Z" fill="#000000" fill-rule="evenodd" fill-opacity="1" /><path clip-path="url(#clip240)" d="M189.695 535.983 L208.051 535.983 L208.051 539.919 L193.977 539.919 L193.977 548.391 Q194.996 548.044 196.014 547.882 Q197.033 547.696 198.052 547.696 Q203.839 547.696 207.218 550.868 Q210.598 554.039 210.598 559.456 Q210.598 565.034 207.126 568.136 Q203.653 571.215 197.334 571.215 Q195.158 571.215 192.89 570.844 Q190.644 570.474 188.237 569.733 L188.237 565.034 Q190.32 566.168 192.542 566.724 Q194.765 567.28 197.241 567.28 Q201.246 567.28 203.584 565.173 Q205.922 563.067 205.922 559.456 Q205.922 555.844 203.584 553.738 Q201.246 551.631 197.241 551.631 Q195.366 551.631 193.491 552.048 Q191.64 552.465 189.695 553.344 L189.695 535.983 Z" fill="#000000" fill-rule="evenodd" fill-opacity="1" /><path clip-path="url(#clip240)" d="M62.9365 236.469 Q59.3254 236.469 57.4967 240.034 Q55.6912 243.576 55.6912 250.705 Q55.6912 257.812 57.4967 261.376 Q59.3254 264.918 62.9365 264.918 Q66.5707 264.918 68.3763 261.376 Q70.205 257.812 70.205 250.705 Q70.205 243.576 68.3763 240.034 Q66.5707 236.469 62.9365 236.469 M62.9365 232.766 Q68.7467 232.766 71.8022 237.372 Q74.8809 241.955 74.8809 250.705 Q74.8809 259.432 71.8022 264.038 Q68.7467 268.622 62.9365 268.622 Q57.1264 268.622 54.0477 264.038 Q50.9921 259.432 50.9921 250.705 Q50.9921 241.955 54.0477 237.372 Q57.1264 232.766 62.9365 232.766 Z" fill="#000000" fill-rule="evenodd" fill-opacity="1" /><path clip-path="url(#clip240)" d="M83.0984 262.071 L87.9827 262.071 L87.9827 267.951 L83.0984 267.951 L83.0984 262.071 Z" fill="#000000" fill-rule="evenodd" fill-opacity="1" /><path clip-path="url(#clip240)" d="M108.168 236.469 Q104.557 236.469 102.728 240.034 Q100.922 243.576 100.922 250.705 Q100.922 257.812 102.728 261.376 Q104.557 264.918 108.168 264.918 Q111.802 264.918 113.608 261.376 Q115.436 257.812 115.436 250.705 Q115.436 243.576 113.608 240.034 Q111.802 236.469 108.168 236.469 M108.168 232.766 Q113.978 232.766 117.033 237.372 Q120.112 241.955 120.112 250.705 Q120.112 259.432 117.033 264.038 Q113.978 268.622 108.168 268.622 Q102.358 268.622 99.2789 264.038 Q96.2234 259.432 96.2234 250.705 Q96.2234 241.955 99.2789 237.372 Q102.358 232.766 108.168 232.766 Z" fill="#000000" fill-rule="evenodd" fill-opacity="1" /><path clip-path="url(#clip240)" d="M129.14 264.015 L136.779 264.015 L136.779 237.65 L128.469 239.316 L128.469 235.057 L136.732 233.391 L141.408 233.391 L141.408 264.015 L149.047 264.015 L149.047 267.951 L129.14 267.951 L129.14 264.015 Z" fill="#000000" fill-rule="evenodd" fill-opacity="1" /><path clip-path="url(#clip240)" d="M168.491 236.469 Q164.88 236.469 163.052 240.034 Q161.246 243.576 161.246 250.705 Q161.246 257.812 163.052 261.376 Q164.88 264.918 168.491 264.918 Q172.126 264.918 173.931 261.376 Q175.76 257.812 175.76 250.705 Q175.76 243.576 173.931 240.034 Q172.126 236.469 168.491 236.469 M168.491 232.766 Q174.302 232.766 177.357 237.372 Q180.436 241.955 180.436 250.705 Q180.436 259.432 177.357 264.038 Q174.302 268.622 168.491 268.622 Q162.681 268.622 159.603 264.038 Q156.547 259.432 156.547 250.705 Q156.547 241.955 159.603 237.372 Q162.681 232.766 168.491 232.766 Z" fill="#000000" fill-rule="evenodd" fill-opacity="1" /><path clip-path="url(#clip240)" d="M198.653 236.469 Q195.042 236.469 193.214 240.034 Q191.408 243.576 191.408 250.705 Q191.408 257.812 193.214 261.376 Q195.042 264.918 198.653 264.918 Q202.288 264.918 204.093 261.376 Q205.922 257.812 205.922 250.705 Q205.922 243.576 204.093 240.034 Q202.288 236.469 198.653 236.469 M198.653 232.766 Q204.464 232.766 207.519 237.372 Q210.598 241.955 210.598 250.705 Q210.598 259.432 207.519 264.038 Q204.464 268.622 198.653 268.622 Q192.843 268.622 189.765 264.038 Q186.709 259.432 186.709 250.705 Q186.709 241.955 189.765 237.372 Q192.843 232.766 198.653 232.766 Z" fill="#000000" fill-rule="evenodd" fill-opacity="1" /><polyline clip-path="url(#clip242)" style="stroke:#009af9; stroke-linecap:butt; stroke-linejoin:round; stroke-width:4; stroke-opacity:1; fill:none" points="
  306.206,886.903 554.574,620.26 802.941,1252.65 1051.31,87.9763 1299.68,1445.72 1548.04,87.9763 1796.41,1252.65 2044.78,620.26 2293.15,886.903 
  "/>
<path clip-path="url(#clip240)" d="
M1996.1 198.898 L2282.55 198.898 L2282.55 95.2176 L1996.1 95.2176  Z
  " fill="#ffffff" fill-rule="evenodd" fill-opacity="1"/>
<polyline clip-path="url(#clip240)" style="stroke:#000000; stroke-linecap:butt; stroke-linejoin:round; stroke-width:4; stroke-opacity:1; fill:none" points="
  1996.1,198.898 2282.55,198.898 2282.55,95.2176 1996.1,95.2176 1996.1,198.898 
  "/>
<polyline clip-path="url(#clip240)" style="stroke:#009af9; stroke-linecap:butt; stroke-linejoin:round; stroke-width:4; stroke-opacity:1; fill:none" points="
  2019.5,147.058 2159.92,147.058 
  "/>
<path clip-path="url(#clip240)" d="M2197.16 166.745 Q2195.35 171.375 2193.64 172.787 Q2191.93 174.199 2189.06 174.199 L2185.65 174.199 L2185.65 170.634 L2188.15 170.634 Q2189.91 170.634 2190.89 169.8 Q2191.86 168.967 2193.04 165.865 L2193.8 163.921 L2183.32 138.412 L2187.83 138.412 L2195.93 158.689 L2204.03 138.412 L2208.55 138.412 L2197.16 166.745 Z" fill="#000000" fill-rule="evenodd" fill-opacity="1" /><path clip-path="url(#clip240)" d="M2215.84 160.402 L2223.48 160.402 L2223.48 134.037 L2215.17 135.703 L2215.17 131.444 L2223.43 129.778 L2228.11 129.778 L2228.11 160.402 L2235.75 160.402 L2235.75 164.338 L2215.84 164.338 L2215.84 160.402 Z" fill="#000000" fill-rule="evenodd" fill-opacity="1" /></svg>
